<svg xmlns="http://www.w3.org/2000/svg" width="30" height="33" viewBox="0 0 30 33" fill="none">
  <g clip-path="url(#clip0_50_243)" filter="url(#filter0_dd_50_243)">
    <path d="M7.26001 15.0199V19.9899C7.26001 21.8099 7.26001 21.8099 8.98001 22.9699L13.71 25.6999C14.42 26.1099 15.58 26.1099 16.29 25.6999L21.02 22.9699C22.74 21.8099 22.74 21.8099 22.74 19.9899V15.0199C22.74 13.1999 22.74 13.1999 21.02 12.0399L16.29 9.30994C15.58 8.89994 14.42 8.89994 13.71 9.30994L8.98001 12.0399C7.26001 13.1999 7.26001 13.1999 7.26001 15.0199Z" stroke="#BBE1DD" stroke-width="1.5" stroke-linecap="round" stroke-linejoin="round"/>
    <path d="M20.5 11.63V9C20.5 7 19.5 6 17.5 6H12.5C10.5 6 9.5 7 9.5 9V11.56M15.63 14.99L16.2 15.88C16.29 16.02 16.49 16.16 16.64 16.2L17.66 16.46C18.29 16.62 18.46 17.16 18.05 17.66L17.38 18.47C17.28 18.6 17.2 18.83 17.21 18.99L17.27 20.04C17.31 20.69 16.85 21.02 16.25 20.78L15.27 20.39C15.0916 20.33 14.8984 20.33 14.72 20.39L13.74 20.78C13.14 21.02 12.68 20.68 12.72 20.04L12.78 18.99C12.79 18.83 12.71 18.59 12.61 18.47L11.94 17.66C11.53 17.16 11.7 16.62 12.33 16.46L13.35 16.2C13.51 16.16 13.71 16.01 13.79 15.88L14.36 14.99C14.72 14.45 15.28 14.45 15.63 14.99Z" stroke="#BBE1DD" stroke-width="1.5" stroke-linecap="round" stroke-linejoin="round"/>
  </g>
  <defs>
    <filter id="filter0_dd_50_243" x="-3" y="0" width="36" height="36" filterUnits="userSpaceOnUse" color-interpolation-filters="sRGB">
      <feFlood flood-opacity="0" result="BackgroundImageFix"/>
      <feColorMatrix in="SourceAlpha" type="matrix" values="0 0 0 0 0 0 0 0 0 0 0 0 0 0 0 0 0 0 127 0" result="hardAlpha"/>
      <feOffset dy="2"/>
      <feGaussianBlur stdDeviation="2"/>
      <feColorMatrix type="matrix" values="0 0 0 0 0 0 0 0 0 0 0 0 0 0 0 0 0 0 0.08 0"/>
      <feBlend mode="normal" in2="BackgroundImageFix" result="effect1_dropShadow_50_243"/>
      <feColorMatrix in="SourceAlpha" type="matrix" values="0 0 0 0 0 0 0 0 0 0 0 0 0 0 0 0 0 0 127 0" result="hardAlpha"/>
      <feOffset/>
      <feGaussianBlur stdDeviation="3"/>
      <feColorMatrix type="matrix" values="0 0 0 0 0 0 0 0 0 0 0 0 0 0 0 0 0 0 0.02 0"/>
      <feBlend mode="normal" in2="effect1_dropShadow_50_243" result="effect2_dropShadow_50_243"/>
      <feBlend mode="normal" in="SourceGraphic" in2="effect2_dropShadow_50_243" result="shape"/>
    </filter>
    <clipPath id="clip0_50_243">
      <rect width="24" height="24" fill="white" transform="translate(3 6)"/>
    </clipPath>
  </defs>
</svg>