<svg xmlns="http://www.w3.org/2000/svg" width="20" height="20" viewBox="0 0 20 20" fill="none">
  <path d="M15.2667 10.0001C17.4333 10.0001 18.3333 9.16673 17.5333 6.4334C16.9917 4.59173 15.4083 3.0084 13.5667 2.46673C10.8333 1.66673 10 2.56673 10 4.7334V7.1334C10 9.16674 10.8333 10.0001 12.5 10.0001H15.2667Z" stroke="#E8D1A2" stroke-width="1.5" stroke-linecap="round" stroke-linejoin="round"/>
  <path d="M16.6667 12.2499C16.2782 14.1783 15.155 15.88 13.5344 16.9951C11.9139 18.1101 9.92319 18.5512 7.98333 18.2249C4.82499 17.7166 2.28333 15.1749 1.76666 12.0166C1.44395 10.0818 1.88348 8.09723 2.99295 6.47965C4.10241 4.86207 5.7955 3.7373 7.71666 3.34155" stroke="#E8D1A2" stroke-width="1.5" stroke-linecap="round" stroke-linejoin="round"/>
</svg>