<svg xmlns="http://www.w3.org/2000/svg" width="13" height="13" viewBox="0 0 13 13" fill="none">
  <path d="M4.85 12H8.15C10.9 12 12 10.9 12 8.15V4.85C12 2.1 10.9 1 8.15 1H4.85C2.1 1 1 2.1 1 4.85V8.15C1 10.9 2.1 12 4.85 12Z" stroke="#BBBBBB" stroke-linecap="round" stroke-linejoin="round"/>
  <path d="M9.52502 3.2002H9.80002" stroke="#BBBBBB" stroke-linecap="round" stroke-linejoin="round"/>
  <path d="M9.30007 6.775C9.30007 8.12946 8.08831 9.3 6.50007 9.3C4.91183 9.3 3.70007 8.12946 3.70007 6.775C3.70007 5.42054 4.91183 4.25 6.50007 4.25C8.08831 4.25 9.30007 5.42054 9.30007 6.775Z" stroke="#BBBBBB"/>
</svg>