<svg xmlns="http://www.w3.org/2000/svg" width="23" height="24" viewBox="0 0 23 24" fill="none">
<path d="M11.569 10.8702C11.4739 10.8602 11.3597 10.8602 11.2551 10.8702C10.1631 10.8313 9.12834 10.3471 8.37006 9.52019C7.61178 8.69332 7.18947 7.58869 7.19257 6.44023C7.19257 3.99023 9.07636 2.00023 11.4168 2.00023C11.9709 1.98973 12.5216 2.09404 13.0373 2.30721C13.5531 2.52039 14.0239 2.83825 14.4227 3.24265C14.8216 3.64705 15.1408 4.13006 15.3621 4.66412C15.5834 5.19818 15.7024 5.77282 15.7124 6.35523C15.7224 6.93765 15.6232 7.51642 15.4204 8.05852C15.2175 8.60062 14.9151 9.09543 14.5304 9.51468C14.1456 9.93394 13.6861 10.2694 13.178 10.502C12.6699 10.7346 12.1232 10.8597 11.569 10.8702ZM6.81201 14.5602C4.5096 16.1802 4.5096 18.8202 6.81201 20.4302C9.42838 22.2702 13.7192 22.2702 16.3356 20.4302C18.638 18.8102 18.638 16.1702 16.3356 14.5602C13.7287 12.7302 9.43789 12.7302 6.81201 14.5602Z" stroke="white" stroke-width="1.5" stroke-linecap="round" stroke-linejoin="round"/>
</svg>