<svg xmlns="http://www.w3.org/2000/svg" width="9" height="9" viewBox="0 0 9 9" fill="none">
  <path d="M8 8L7.3 7.3M4.325 7.65C4.76165 7.65 5.19401 7.564 5.59742 7.3969C6.00083 7.2298 6.36738 6.98488 6.67613 6.67613C6.98488 6.36738 7.2298 6.00083 7.3969 5.59742C7.564 5.19401 7.65 4.76165 7.65 4.325C7.65 3.88835 7.564 3.45599 7.3969 3.05258C7.2298 2.64917 6.98488 2.28262 6.67613 1.97387C6.36738 1.66512 6.00083 1.4202 5.59742 1.2531C5.19401 1.086 4.76165 1 4.325 1C3.44316 1 2.59743 1.35031 1.97387 1.97387C1.35031 2.59743 1 3.44316 1 4.325C1 5.20684 1.35031 6.05257 1.97387 6.67613C2.59743 7.29969 3.44316 7.65 4.325 7.65Z" stroke="#BBBBBB" stroke-linecap="round" stroke-linejoin="round"/>
</svg>