<svg xmlns="http://www.w3.org/2000/svg" width="20" height="20" viewBox="0 0 20 20" fill="none">
<path d="M11.775 9.45022C11.8531 9.14157 11.8498 8.81791 11.7653 8.51094C11.6807 8.20397 11.5179 7.92422 11.2928 7.69908C11.0676 7.47394 10.7879 7.31114 10.4809 7.22661C10.174 7.14208 9.85029 7.13873 9.54164 7.21689C8.89998 7.37522 8.37498 7.90022 8.21664 8.54189C8.13849 8.85054 8.14184 9.1742 8.22637 9.48117C8.31089 9.78814 8.4737 10.0679 8.69884 10.293C8.92397 10.5182 9.20373 10.681 9.51069 10.7655C9.81766 10.85 10.1413 10.8534 10.45 10.7752C11.1 10.6169 11.625 10.0919 11.775 9.45022Z" stroke="#E8D1A2" stroke-width="1.5" stroke-linecap="round" stroke-linejoin="round"/>
<path d="M15.0084 14.3248C15.7405 13.6429 16.3241 12.8173 16.7227 11.8997C17.1213 10.982 17.3263 9.992 17.3251 8.9915C17.3251 8.02957 17.1356 7.07706 16.7675 6.18835C16.3993 5.29964 15.8598 4.49214 15.1796 3.81195C14.4994 3.13176 13.6919 2.5922 12.8032 2.22409C11.9145 1.85597 10.962 1.6665 10 1.6665C9.03812 1.6665 8.0856 1.85597 7.19689 2.22409C6.30818 2.5922 5.50068 3.13176 4.82049 3.81195C4.1403 4.49214 3.60075 5.29964 3.23263 6.18835C2.86452 7.07706 2.67505 8.02957 2.67505 8.9915C2.67505 11.1082 3.57505 13.0165 5.01672 14.3498" stroke="#E8D1A2" stroke-width="1.5" stroke-linecap="round" stroke-linejoin="round"/>
<path d="M6.66672 12.1248C5.90005 11.3082 5.42505 10.2082 5.42505 8.9915C5.42505 6.4665 7.47505 4.4165 10 4.4165C12.525 4.4165 14.575 6.4665 14.575 8.9915C14.575 10.2082 14.1 11.2998 13.3334 12.1248M8.58338 13.8832L7.38338 15.3748C6.43338 16.5665 7.27505 18.3248 8.80005 18.3248H11.1917C12.7167 18.3248 13.5667 16.5582 12.6084 15.3748L11.4084 13.8832C10.6917 12.9748 9.30838 12.9748 8.58338 13.8832Z" stroke="#E8D1A2" stroke-width="1.5" stroke-linecap="round" stroke-linejoin="round"/>
</svg>