<svg xmlns="http://www.w3.org/2000/svg" width="20" height="20" viewBox="0 0 20 20" fill="none">
  <g clip-path="url(#clip0_50_321)">
    <path d="M7.58333 9.99999V8.76666C7.58333 7.17499 8.70833 6.53333 10.0833 7.32499L11.15 7.94166L12.2167 8.55833C13.5917 9.34999 13.5917 10.65 12.2167 11.4417L11.15 12.0583L10.0833 12.675C8.70833 13.4667 7.58333 12.8167 7.58333 11.2333V9.99999Z" stroke="#E8D1A2" stroke-width="1.5" stroke-miterlimit="10" stroke-linecap="round" stroke-linejoin="round"/>
    <path d="M10 18.3334C14.6025 18.3334 18.3333 14.6026 18.3333 10.0001C18.3333 5.39758 14.6025 1.66675 10 1.66675C5.39751 1.66675 1.66667 5.39758 1.66667 10.0001C1.66667 14.6026 5.39751 18.3334 10 18.3334Z" stroke="#E8D1A2" stroke-width="1.5" stroke-linecap="round" stroke-linejoin="round"/>
  </g>
  <defs>
    <clipPath id="clip0_50_321">
      <rect width="20" height="20" fill="white"/>
    </clipPath>
  </defs>
</svg>