<svg xmlns="http://www.w3.org/2000/svg" width="20" height="20" viewBox="0 0 20 20" fill="none">
  <path d="M15.0333 11.2916C14.6833 11.6333 14.4833 12.1249 14.5333 12.6499C14.6083 13.5499 15.4333 14.2083 16.3333 14.2083H17.9167V15.1999C17.9167 16.9249 16.5083 18.3333 14.7833 18.3333H5.21668C3.49168 18.3333 2.08334 16.9249 2.08334 15.1999V9.59159C2.08334 7.86659 3.49168 6.45825 5.21668 6.45825H14.7833C16.5083 6.45825 17.9167 7.86659 17.9167 9.59159V10.7916H16.2333C15.7667 10.7916 15.3417 10.9749 15.0333 11.2916Z" stroke="#E8D1A2" stroke-width="1.5" stroke-linecap="round" stroke-linejoin="round"/>
  <path d="M2.08334 10.3416V6.53325C2.08334 5.54159 2.69168 4.65825 3.61668 4.30825L10.2333 1.80825C10.4731 1.71791 10.7312 1.68709 10.9854 1.71844C11.2397 1.7498 11.4826 1.84238 11.6932 1.98825C11.9038 2.13413 12.0759 2.32893 12.1946 2.55594C12.3134 2.78295 12.3753 3.03539 12.375 3.29159V6.45825M5.83334 9.99992H11.6667M18.7992 11.6416V13.3583C18.7992 13.8166 18.4325 14.1916 17.9658 14.2083H16.3325C15.4325 14.2083 14.6075 13.5499 14.5325 12.6499C14.4825 12.1249 14.6825 11.6333 15.0325 11.2916C15.3408 10.9749 15.7658 10.7916 16.2325 10.7916H17.9658C18.4325 10.8083 18.7992 11.1833 18.7992 11.6416Z" stroke="#E8D1A2" stroke-width="1.5" stroke-linecap="round" stroke-linejoin="round"/>
</svg>